<svg width="267" height="55" viewBox="0 0 267 55" fill="none" xmlns="http://www.w3.org/2000/svg">
<path d="M44.748 0H10.252C4.58998 0 0 4.58998 0 10.252V44.748C0 50.41 4.58998 55 10.252 55H44.748C50.41 55 55 50.41 55 44.748V10.252C55 4.58998 50.41 0 44.748 0Z" fill="url(#paint0_linear)"/>
<path d="M39.6349 14.2419C39.5849 14.1419 39.5299 14.0499 39.4739 13.9539C39.4299 13.8849 39.3869 13.8239 39.3439 13.7539C38.6669 12.7799 37.4639 12.3059 35.7199 12.3059H25.4549C21.9669 12.3059 19.9549 14.1929 19.2919 18.1309L16.3919 36.4649C16.0874 37.7805 16.1956 39.158 16.7019 40.4099C16.7404 40.509 16.7905 40.6033 16.8509 40.6909C17.5089 41.8229 18.7749 42.3789 20.6619 42.3789H30.9259C34.3759 42.3789 36.3869 40.4919 37.0079 36.5539L37.5079 33.0139L37.8489 30.8519H37.8119L37.8989 30.2519H30.6129L29.9919 34.9179C29.8739 35.5179 29.7189 35.6929 29.1789 35.6929H27.0199L29.6009 19.0749H31.8169C32.3569 19.0749 32.4749 19.2459 32.3939 19.8429L31.9389 23.0629L31.8339 23.7419H31.8459L31.7339 24.5169H39.0189L39.9069 18.2169C40.2271 16.8955 40.1322 15.5074 39.6349 14.2419ZM26.0349 32.5209H23.9349C23.8796 32.5174 23.8257 32.502 23.7769 32.4758C23.7282 32.4496 23.6856 32.4132 23.6521 32.3691C23.6186 32.325 23.595 32.2742 23.5829 32.2201C23.5708 32.1661 23.5704 32.1101 23.5819 32.0559L25.1689 22.1029C25.1793 22.0153 25.2205 21.9343 25.2852 21.8744C25.3499 21.8145 25.4338 21.7796 25.5219 21.7759H27.7009L26.0349 32.5209Z" fill="#191C23"/>
<path d="M183.266 15.3701H199.73L198.862 20.3701H188.162L187.398 24.7811H195.943L195.075 29.7131H186.53L185.661 34.6801H196.324L195.456 39.6801H178.994L183.266 15.3701ZM202.821 15.3701H208.587L205.218 34.6121H215.013L214.145 39.6831H198.545L202.821 15.3701ZM220.921 15.3701H226.687L222.415 39.6841H216.649L218.464 29.3571L220.921 15.3701ZM234.363 20.4071H228.215L229.084 15.3701H247.184L246.315 20.4071H240.133L236.733 39.6841H230.967L234.363 20.4071ZM249.539 15.3701H266.003L265.135 20.3701H254.439L253.675 24.7811H262.22L261.352 29.7131H252.807L251.939 34.6801H262.603L261.734 39.6801H245.265L249.539 15.3701Z" fill="url(#paint1_linear)"/>
<path d="M72.1533 34.4001L74.7233 19.6731C75.3133 16.4081 77.1233 14.8801 80.2803 14.8801H88.8943C92.0553 14.8801 93.2703 16.4081 92.7153 19.6731L91.9513 23.9101H86.1853L86.8103 20.5411C86.8803 20.0201 86.7413 19.8811 86.2543 19.8811H81.0793C80.6283 19.8811 80.4193 20.0201 80.3503 20.5411L78.0583 33.5311C77.9583 34.0171 78.0933 34.1911 78.5793 34.1911H83.7203C84.2413 34.1911 84.4153 34.0171 84.5203 33.5311L85.1103 30.1311H90.8793L90.1153 34.4031C89.5593 37.6331 87.7153 39.1961 84.5923 39.1961H75.9793C72.8133 39.1941 71.5633 37.6351 72.1533 34.4001Z" fill="#F5F5F5"/>
<path d="M92.7512 34.4001L95.3212 19.6731C95.9112 16.4081 97.6832 14.8801 100.844 14.8801H110.044C113.244 14.8801 114.49 16.4081 113.9 19.6731L111.33 34.4001C110.74 37.6301 108.968 39.1931 105.772 39.1931H96.5722C93.4082 39.1941 92.1612 37.6351 92.7512 34.4001ZM104.977 34.1921C105.428 34.1921 105.602 34.0181 105.706 33.5321L107.999 20.5421C108.068 20.0211 107.964 19.8821 107.478 19.8821H101.678C101.227 19.8821 101.018 20.0211 100.948 20.5421L98.6562 33.5321C98.5562 34.0181 98.6912 34.1921 99.1772 34.1921H104.977Z" fill="#F5F5F5"/>
<path d="M127.379 34.0531H119.879L117.656 39.1941H111.508L123.008 14.8801H130.893L133.88 39.1941H127.837L127.379 34.0531ZM126.962 29.1531L126.162 19.6361L122.029 29.1531H126.962Z" fill="#F5F5F5"/>
<path d="M135.786 34.4001L138.356 19.6731C138.947 16.4081 140.756 14.8801 143.913 14.8801H152.527C155.688 14.8801 156.903 16.4081 156.348 19.6731L155.584 23.9101H149.818L150.443 20.5411C150.513 20.0201 150.374 19.8811 149.887 19.8811H144.712C144.261 19.8811 144.052 20.0201 143.983 20.5411L141.69 33.5311C141.59 34.0171 141.725 34.1911 142.211 34.1911H147.352C147.873 34.1911 148.047 34.0171 148.152 33.5311L148.742 30.1311H154.508L153.744 34.4031C153.188 37.6331 151.344 39.1961 148.221 39.1961H139.602C136.446 39.1941 135.196 37.6351 135.786 34.4001Z" fill="#F5F5F5"/>
<path d="M160.202 14.8801H165.968L164.336 24.2231H171.877L173.509 14.8801H179.275L175.003 39.1941H169.237L170.974 29.2941H163.437L161.7 39.1941H155.934L160.202 14.8801Z" fill="#F5F5F5"/>
<defs>
<linearGradient id="paint0_linear" x1="-3.74" y1="2.97207e-07" x2="55" y2="55" gradientUnits="userSpaceOnUse">
<stop stop-color="#DA0C1A"/>
<stop offset="1" stop-color="#F8810A"/>
</linearGradient>
<linearGradient id="paint1_linear" x1="178.994" y1="15.3701" x2="189.947" y2="57.6986" gradientUnits="userSpaceOnUse">
<stop stop-color="#DA0C1A"/>
<stop offset="1" stop-color="#F8810A"/>
</linearGradient>
</defs>
</svg>
